<svg width="27" height="22" viewBox="0 0 27 22" fill="none" xmlns="http://www.w3.org/2000/svg">
<path fill-rule="evenodd" clip-rule="evenodd" d="M26.9729 21.9833C26.9729 21.2494 27.0339 0 26.9729 0H17.5015C17.4325 0 16.8837 2.14727 16.3757 4.06588C15.863 6.00234 15.2789 7.96449 14.6423 10.4576C14.3875 11.4551 13.7851 14.3339 13.7666 14.3339C13.5453 14.3339 13.3939 14.3339 13.1233 14.3339C13.0998 14.3335 12.5323 11.4616 12.2722 10.453C11.6318 7.96917 11.0995 6.00337 10.6035 4.08311C10.1014 2.13864 9.5646 0 9.49556 0H0.0241948C-0.0204815 0 0.00719993 21.6232 0.0241948 21.9489C0.0273042 22.0086 3.24496 21.9489 6.52906 21.9489C6.54278 21.9489 6.59597 18.2687 6.5648 14.5924C6.54007 11.6756 6.40658 8.14899 6.40658 8.14899C6.40658 8.14899 7.02311 8.14899 7.03501 8.14663C7.06839 8.11734 8.77225 15.443 9.10275 16.7522C9.37179 17.8179 10.4002 21.789 10.4427 21.9489C10.4649 22.0324 15.9675 21.99 16.4651 21.9833C16.5317 21.9824 16.8846 20.4567 17.8834 16.7369C18.7048 13.6774 19.5468 10.0257 19.9677 8.14899C19.9703 8.14899 20.6226 8.14899 20.6289 8.14899C20.6559 8.08696 20.4253 12.6686 20.4622 16.1768C20.4915 18.9594 20.4572 21.9661 20.4681 21.9661" fill="white"/>
</svg>
